<svg width="18" height="18" viewBox="0 0 18 18" fill="none" xmlns="http://www.w3.org/2000/svg">
<g id="Group">
<path id="Vector" d="M14.8333 7.75V6.33333H11.1666V11.6667H12.5833V10H14.2499V8.58333H12.5833V7.75H14.8333ZM8.74992 6.33333H10.1666V11.6667H8.74992V6.33333ZM5.74992 7.66667C6.08325 7.66667 6.49992 7.83333 6.74992 8.08333L7.74992 7.25C7.24992 6.66667 6.49992 6.33333 5.74992 6.33333C4.24992 6.33333 3.08325 7.5 3.08325 9C3.08325 10.5 4.24992 11.6667 5.74992 11.6667C6.58325 11.6667 7.24992 11.3333 7.74992 10.75V8.66667H5.41659V9.66667H6.41658V10.1667C6.24992 10.25 5.99992 10.3333 5.74992 10.3333C4.99992 10.3333 4.41659 9.75 4.41659 9C4.41659 8.33333 4.99992 7.66667 5.74992 7.66667Z" fill="#1D9BF0"/>
<path id="Vector_2" d="M16.0833 0.683334H1.91663C0.883293 0.683334 0.041626 1.5225 0.041626 2.55583V15.4783C0.041626 16.51 0.883293 17.35 1.91663 17.35H16.0833C17.1166 17.35 17.9583 16.51 17.9583 15.4783V2.55583C17.9583 1.5225 17.1166 0.683334 16.0833 0.683334ZM16.7083 15.4783C16.7083 15.82 16.4283 16.1 16.0833 16.1H1.91663C1.57163 16.1 1.29163 15.82 1.29163 15.4783V2.55583C1.29163 2.2125 1.57163 1.93333 1.91663 1.93333H16.0833C16.4283 1.93333 16.7083 2.2125 16.7083 2.55583V15.4783Z" fill="#1D9BF0"/>
</g>
</svg>
